# xmcd
#
# Track frame offsets:
#	150
#	17132
#	30025
#	48132
#	67625
#	78302
#	93267
#	109850
#	124362
#	139355
#	151352
#	172775
#	187565
#	205177
#	223060
#	240682
#	259507
#	276342
#	289490
#	309285
#
# Disc length: 4345 seconds
#
# Revision: 0
# Processed by: cddbd v1.5.2PL0 Copyright (c) Steve Scherf et al.
# Submitted via: audiograbber 1.83.01
#
DISCID=0810f714
DTITLE=Kenny Rogers - Through The Years: A Retrospective [CD 3) - 1976-1983
DYEAR=1998
DGENRE=Country
TTITLE0=Kenny Rogers - Love Lifted Me
TTITLE1=Kenny Rogers - Laura (What's He Got That I Ain't Got)
TTITLE2=Kenny Rogers - While The Feeling's Good
TTITLE3=Kenny Rogers - Sweet Music Man
TTITLE4=Kenny Rogers and Dottie West - Anyone Who Isn't Me Tonight
TTITLE5=Kenny Rogers and Dottie West - 'Til I Can Make It On My Own
TTITLE6=Kenny Rogers with Kim Carnes - Don't Fall In Love With A Dreamer
TTITLE7=Kenny Rogers - Love The World Away
TTITLE8=Kenny Rogers - Share Your Love With Me
TTITLE9=Kenny Rogers - Blaze Of Glory
TTITLE10=Kenny Rogers - Through The Years
TTITLE11=Kenny Rogers - Love Song
TTITLE12=Kenny Rogers - All My Life
TTITLE13=Kenny Rogers - Scarlet Fever
TTITLE14=Kenny Rogers - You Were A Good Friend
TTITLE15=Kenny Rogers - Buried Treasure
TTITLE16=Kenny Rogers and Dolly Parton - The Greatest Gift Of All
TTITLE17=Kenny Rogers and Dottie West - Together Again
TTITLE18=Kenny Rogers with Kim Carnes and James Ingram - What About Me
TTITLE19=Kenny Rogers - Eyes That See In The Dark
EXTD=
EXTT0=
EXTT1=
EXTT2=
EXTT3=
EXTT4=
EXTT5=
EXTT6=
EXTT7=
EXTT8=
EXTT9=
EXTT10=
EXTT11=
EXTT12=
EXTT13=
EXTT14=
EXTT15=
EXTT16=
EXTT17=
EXTT18=
EXTT19=
PLAYORDER=
